M48
; DRILL file {KiCad (5.1.0-0)} date Thursday, April 11, 2019 at 03:10:29 PM
; FORMAT={3:3/ absolute / metric / suppress leading zeros}
; #@! TF.CreationDate,2019-04-11T15:10:29-07:00
; #@! TF.GenerationSoftware,Kicad,Pcbnew,(5.1.0-0)
FMAT,2
METRIC,TZ
T1C0.400
T2C0.650
T3C0.700
T4C0.800
T5C0.900
T6C1.000
T7C3.200
%
G90
G05
T1
X92710Y-122682
X119400Y-119054
X120400Y-119854
X122500Y-119454
X123700Y-120154
X130600Y-102554
X131500Y-101654
X146600Y-115154
X147400Y-113854
X148170Y-121040
X148200Y-112654
X148200Y-119254
X149100Y-111554
X152800Y-102354
X152800Y-122854
X166912Y-94708
X167727Y-80939
T4
X125094Y-113780
X125094Y-116280
X117856Y-78994
X117856Y-81534
X117856Y-84074
X117856Y-86614
X117856Y-89154
X117856Y-91694
X117856Y-94234
X125476Y-78994
X125476Y-81534
X125476Y-84074
X125476Y-86614
X125476Y-89154
X125476Y-91694
X125476Y-94234
X92710Y-110998
X92710Y-118618
X95250Y-110998
X95250Y-118618
X97790Y-110998
X97790Y-118618
X100330Y-110998
X100330Y-118618
X102870Y-110998
X102870Y-118618
X105410Y-110998
X105410Y-118618
X107950Y-110998
X107950Y-118618
X110490Y-110998
X110490Y-118618
X113030Y-110998
X113030Y-118618
X115570Y-110998
X115570Y-118618
X78866Y-102858
X78866Y-105398
X78866Y-107938
X78866Y-110478
X78866Y-113018
X78866Y-115558
X78866Y-118098
X78866Y-120638
X86486Y-102858
X86486Y-105398
X86486Y-107938
X86486Y-110478
X86486Y-113018
X86486Y-115558
X86486Y-118098
X86486Y-120638
X130302Y-78994
X130302Y-81534
X130302Y-84074
X130302Y-86614
X130302Y-89154
X130302Y-91694
X130302Y-94234
X137922Y-78994
X137922Y-81534
X137922Y-84074
X137922Y-86614
X137922Y-89154
X137922Y-91694
X137922Y-94234
X144018Y-78994
X144018Y-81534
X144018Y-84074
X144018Y-86614
X144018Y-89154
X144018Y-91694
X144018Y-94234
X151638Y-78994
X151638Y-81534
X151638Y-84074
X151638Y-86614
X151638Y-89154
X151638Y-91694
X151638Y-94234
X150748Y-113780
X150748Y-116280
X148844Y-97536
X148844Y-105156
X151384Y-97536
X151384Y-105156
X153924Y-97536
X153924Y-105156
X156464Y-97536
X156464Y-105156
X159004Y-97536
X159004Y-105156
X161544Y-97536
X161544Y-105156
X164084Y-97536
X164084Y-105156
X166624Y-97536
X166624Y-105156
X169164Y-97536
X169164Y-105156
X171704Y-97536
X171704Y-105156
X92964Y-78994
X92964Y-81534
X92964Y-84074
X92964Y-86614
X92964Y-89154
X92964Y-91694
X92964Y-94234
X100584Y-78994
X100584Y-81534
X100584Y-84074
X100584Y-86614
X100584Y-89154
X100584Y-91694
X100584Y-94234
X120650Y-97536
X120650Y-105156
X123190Y-97536
X123190Y-105156
X125730Y-97536
X125730Y-105156
X128270Y-97536
X128270Y-105156
X130810Y-97536
X130810Y-105156
X133350Y-97536
X133350Y-105156
X135890Y-97536
X135890Y-105156
X138430Y-97536
X138430Y-105156
X140970Y-97536
X140970Y-105156
X143510Y-97536
X143510Y-105156
X92582Y-103112
X95122Y-103112
X97662Y-103112
X100202Y-103112
X102742Y-103112
X105282Y-103112
X107822Y-103112
X110362Y-103112
X112902Y-103112
X81192Y-99556
X83692Y-99556
X105410Y-78994
X105410Y-81534
X105410Y-84074
X105410Y-86614
X105410Y-89154
X105410Y-91694
X105410Y-94234
X113030Y-78994
X113030Y-81534
X113030Y-84074
X113030Y-86614
X113030Y-89154
X113030Y-91694
X113030Y-94234
X117500Y-99822
X117500Y-102322
X156210Y-78994
X156210Y-81534
X156210Y-84074
X156210Y-86614
X156210Y-89154
X156210Y-91694
X156210Y-94234
X163830Y-78994
X163830Y-81534
X163830Y-84074
X163830Y-86614
X163830Y-89154
X163830Y-91694
X163830Y-94234
X146304Y-99822
X146304Y-102322
X89400Y-113254
X89400Y-115754
X128300Y-110986
X128300Y-118606
X130840Y-110986
X130840Y-118606
X133380Y-110986
X133380Y-118606
X135920Y-110986
X135920Y-118606
X138460Y-110986
X138460Y-118606
X141000Y-110986
X141000Y-118606
X143540Y-110986
X143540Y-118606
X154050Y-111240
X154050Y-118860
X156590Y-111240
X156590Y-118860
X159130Y-111240
X159130Y-118860
X161670Y-111240
X161670Y-118860
X164210Y-111240
X164210Y-118860
X166750Y-111240
X166750Y-118860
X169290Y-111240
X169290Y-118860
X171830Y-111240
X171830Y-118860
T5
X85726Y-89396
X85726Y-91896
X85726Y-94396
X89026Y-89396
X89026Y-91896
X89026Y-94396
T6
X118100Y-123054
X120640Y-123054
X123180Y-123054
X125720Y-123054
X128260Y-123054
X130800Y-123054
X133340Y-123054
X135880Y-123054
X138420Y-123054
X140960Y-123054
X77470Y-125464
X80010Y-125464
X82550Y-125464
X85090Y-125464
X87630Y-125464
X90170Y-125464
X92710Y-125464
X95250Y-125464
X97790Y-125464
X100330Y-125464
X102870Y-125464
X105410Y-125464
X107950Y-125464
X110490Y-125464
X113030Y-125464
X115570Y-125464
X118110Y-125464
X120650Y-125464
X123190Y-125464
X125730Y-125464
X128270Y-125464
X130810Y-125464
X133350Y-125464
X135890Y-125464
X138430Y-125464
X140970Y-125464
X143510Y-125464
X146050Y-125464
X148590Y-125464
X151130Y-125464
X153670Y-125464
X156210Y-125464
X158750Y-125464
X161290Y-125464
X163830Y-125464
X166370Y-125464
X168910Y-125464
X171450Y-125464
X173990Y-125464
T7
X81200Y-93754
T2
G00X170019Y-83661
M15
G01X169619Y-83661
M16
G05
G00X170019Y-88501
M15
G01X169619Y-88501
M16
G05
T3
G00X173069Y-83351
M15
G01X172569Y-83351
M16
G05
G00X173069Y-88811
M15
G01X172569Y-88811
M16
G05
T0
M30
