G04 #@! TF.GenerationSoftware,KiCad,Pcbnew,(5.1.0-0)*
G04 #@! TF.CreationDate,2019-04-18T13:44:00-07:00*
G04 #@! TF.ProjectId,rc2014_monitor,72633230-3134-45f6-9d6f-6e69746f722e,rev?*
G04 #@! TF.SameCoordinates,Original*
G04 #@! TF.FileFunction,Legend,Bot*
G04 #@! TF.FilePolarity,Positive*
%FSLAX46Y46*%
G04 Gerber Fmt 4.6, Leading zero omitted, Abs format (unit mm)*
G04 Created by KiCad (PCBNEW (5.1.0-0)) date 2019-04-18 13:44:00*
%MOMM*%
%LPD*%
G04 APERTURE LIST*
%ADD10C,0.152400*%
G04 APERTURE END LIST*
D10*
X174781714Y-90677619D02*
X174781714Y-91500095D01*
X174733333Y-91596857D01*
X174684952Y-91645238D01*
X174588190Y-91693619D01*
X174394666Y-91693619D01*
X174297904Y-91645238D01*
X174249523Y-91596857D01*
X174201142Y-91500095D01*
X174201142Y-90677619D01*
X173765714Y-91645238D02*
X173620571Y-91693619D01*
X173378666Y-91693619D01*
X173281904Y-91645238D01*
X173233523Y-91596857D01*
X173185142Y-91500095D01*
X173185142Y-91403333D01*
X173233523Y-91306571D01*
X173281904Y-91258190D01*
X173378666Y-91209809D01*
X173572190Y-91161428D01*
X173668952Y-91113047D01*
X173717333Y-91064666D01*
X173765714Y-90967904D01*
X173765714Y-90871142D01*
X173717333Y-90774380D01*
X173668952Y-90726000D01*
X173572190Y-90677619D01*
X173330285Y-90677619D01*
X173185142Y-90726000D01*
X172411047Y-91161428D02*
X172265904Y-91209809D01*
X172217523Y-91258190D01*
X172169142Y-91354952D01*
X172169142Y-91500095D01*
X172217523Y-91596857D01*
X172265904Y-91645238D01*
X172362666Y-91693619D01*
X172749714Y-91693619D01*
X172749714Y-90677619D01*
X172411047Y-90677619D01*
X172314285Y-90726000D01*
X172265904Y-90774380D01*
X172217523Y-90871142D01*
X172217523Y-90967904D01*
X172265904Y-91064666D01*
X172314285Y-91113047D01*
X172411047Y-91161428D01*
X172749714Y-91161428D01*
X170959619Y-91693619D02*
X170959619Y-90677619D01*
X170572571Y-90677619D01*
X170475809Y-90726000D01*
X170427428Y-90774380D01*
X170379047Y-90871142D01*
X170379047Y-91016285D01*
X170427428Y-91113047D01*
X170475809Y-91161428D01*
X170572571Y-91209809D01*
X170959619Y-91209809D01*
X170040380Y-90677619D02*
X169798476Y-91693619D01*
X169604952Y-90967904D01*
X169411428Y-91693619D01*
X169169523Y-90677619D01*
X168201904Y-91693619D02*
X168540571Y-91209809D01*
X168782476Y-91693619D02*
X168782476Y-90677619D01*
X168395428Y-90677619D01*
X168298666Y-90726000D01*
X168250285Y-90774380D01*
X168201904Y-90871142D01*
X168201904Y-91016285D01*
X168250285Y-91113047D01*
X168298666Y-91161428D01*
X168395428Y-91209809D01*
X168782476Y-91209809D01*
X99307428Y-110489619D02*
X99307428Y-109473619D01*
X98968761Y-110199333D01*
X98630095Y-109473619D01*
X98630095Y-110489619D01*
X97614095Y-110489619D02*
X98194666Y-110489619D01*
X97904380Y-110489619D02*
X97904380Y-109473619D01*
X98001142Y-109618761D01*
X98097904Y-109715523D01*
X98194666Y-109763904D01*
X96404571Y-109957428D02*
X96065904Y-109957428D01*
X95920761Y-110489619D02*
X96404571Y-110489619D01*
X96404571Y-109473619D01*
X95920761Y-109473619D01*
X95049904Y-110489619D02*
X95049904Y-109473619D01*
X95049904Y-110441238D02*
X95146666Y-110489619D01*
X95340190Y-110489619D01*
X95436952Y-110441238D01*
X95485333Y-110392857D01*
X95533714Y-110296095D01*
X95533714Y-110005809D01*
X95485333Y-109909047D01*
X95436952Y-109860666D01*
X95340190Y-109812285D01*
X95146666Y-109812285D01*
X95049904Y-109860666D01*
X94130666Y-109812285D02*
X94130666Y-110634761D01*
X94179047Y-110731523D01*
X94227428Y-110779904D01*
X94324190Y-110828285D01*
X94469333Y-110828285D01*
X94566095Y-110779904D01*
X94130666Y-110441238D02*
X94227428Y-110489619D01*
X94420952Y-110489619D01*
X94517714Y-110441238D01*
X94566095Y-110392857D01*
X94614476Y-110296095D01*
X94614476Y-110005809D01*
X94566095Y-109909047D01*
X94517714Y-109860666D01*
X94420952Y-109812285D01*
X94227428Y-109812285D01*
X94130666Y-109860666D01*
X93259809Y-110441238D02*
X93356571Y-110489619D01*
X93550095Y-110489619D01*
X93646857Y-110441238D01*
X93695238Y-110344476D01*
X93695238Y-109957428D01*
X93646857Y-109860666D01*
X93550095Y-109812285D01*
X93356571Y-109812285D01*
X93259809Y-109860666D01*
X93211428Y-109957428D01*
X93211428Y-110054190D01*
X93695238Y-110150952D01*
X92147047Y-109473619D02*
X91566476Y-109473619D01*
X91856761Y-110489619D02*
X91856761Y-109473619D01*
X91227809Y-110489619D02*
X91227809Y-109812285D01*
X91227809Y-110005809D02*
X91179428Y-109909047D01*
X91131047Y-109860666D01*
X91034285Y-109812285D01*
X90937523Y-109812285D01*
X90598857Y-110489619D02*
X90598857Y-109812285D01*
X90598857Y-109473619D02*
X90647238Y-109522000D01*
X90598857Y-109570380D01*
X90550476Y-109522000D01*
X90598857Y-109473619D01*
X90598857Y-109570380D01*
X89679619Y-109812285D02*
X89679619Y-110634761D01*
X89728000Y-110731523D01*
X89776380Y-110779904D01*
X89873142Y-110828285D01*
X90018285Y-110828285D01*
X90115047Y-110779904D01*
X89679619Y-110441238D02*
X89776380Y-110489619D01*
X89969904Y-110489619D01*
X90066666Y-110441238D01*
X90115047Y-110392857D01*
X90163428Y-110296095D01*
X90163428Y-110005809D01*
X90115047Y-109909047D01*
X90066666Y-109860666D01*
X89969904Y-109812285D01*
X89776380Y-109812285D01*
X89679619Y-109860666D01*
X88760380Y-109812285D02*
X88760380Y-110634761D01*
X88808761Y-110731523D01*
X88857142Y-110779904D01*
X88953904Y-110828285D01*
X89099047Y-110828285D01*
X89195809Y-110779904D01*
X88760380Y-110441238D02*
X88857142Y-110489619D01*
X89050666Y-110489619D01*
X89147428Y-110441238D01*
X89195809Y-110392857D01*
X89244190Y-110296095D01*
X89244190Y-110005809D01*
X89195809Y-109909047D01*
X89147428Y-109860666D01*
X89050666Y-109812285D01*
X88857142Y-109812285D01*
X88760380Y-109860666D01*
X87889523Y-110441238D02*
X87986285Y-110489619D01*
X88179809Y-110489619D01*
X88276571Y-110441238D01*
X88324952Y-110344476D01*
X88324952Y-109957428D01*
X88276571Y-109860666D01*
X88179809Y-109812285D01*
X87986285Y-109812285D01*
X87889523Y-109860666D01*
X87841142Y-109957428D01*
X87841142Y-110054190D01*
X88324952Y-110150952D01*
X87405714Y-110489619D02*
X87405714Y-109812285D01*
X87405714Y-110005809D02*
X87357333Y-109909047D01*
X87308952Y-109860666D01*
X87212190Y-109812285D01*
X87115428Y-109812285D01*
X121598952Y-100737228D02*
X121453809Y-100785609D01*
X121405428Y-100833990D01*
X121357047Y-100930752D01*
X121357047Y-101075895D01*
X121405428Y-101172657D01*
X121453809Y-101221038D01*
X121550571Y-101269419D01*
X121937619Y-101269419D01*
X121937619Y-100253419D01*
X121598952Y-100253419D01*
X121502190Y-100301800D01*
X121453809Y-100350180D01*
X121405428Y-100446942D01*
X121405428Y-100543704D01*
X121453809Y-100640466D01*
X121502190Y-100688847D01*
X121598952Y-100737228D01*
X121937619Y-100737228D01*
X120486190Y-100592085D02*
X120486190Y-101269419D01*
X120921619Y-100592085D02*
X120921619Y-101124276D01*
X120873238Y-101221038D01*
X120776476Y-101269419D01*
X120631333Y-101269419D01*
X120534571Y-101221038D01*
X120486190Y-101172657D01*
X120050761Y-101221038D02*
X119954000Y-101269419D01*
X119760476Y-101269419D01*
X119663714Y-101221038D01*
X119615333Y-101124276D01*
X119615333Y-101075895D01*
X119663714Y-100979133D01*
X119760476Y-100930752D01*
X119905619Y-100930752D01*
X120002380Y-100882371D01*
X120050761Y-100785609D01*
X120050761Y-100737228D01*
X120002380Y-100640466D01*
X119905619Y-100592085D01*
X119760476Y-100592085D01*
X119663714Y-100640466D01*
X118405809Y-101269419D02*
X118405809Y-100253419D01*
X118067142Y-100979133D01*
X117728476Y-100253419D01*
X117728476Y-101269419D01*
X117099523Y-101269419D02*
X117196285Y-101221038D01*
X117244666Y-101172657D01*
X117293047Y-101075895D01*
X117293047Y-100785609D01*
X117244666Y-100688847D01*
X117196285Y-100640466D01*
X117099523Y-100592085D01*
X116954380Y-100592085D01*
X116857619Y-100640466D01*
X116809238Y-100688847D01*
X116760857Y-100785609D01*
X116760857Y-101075895D01*
X116809238Y-101172657D01*
X116857619Y-101221038D01*
X116954380Y-101269419D01*
X117099523Y-101269419D01*
X116325428Y-100592085D02*
X116325428Y-101269419D01*
X116325428Y-100688847D02*
X116277047Y-100640466D01*
X116180285Y-100592085D01*
X116035142Y-100592085D01*
X115938380Y-100640466D01*
X115890000Y-100737228D01*
X115890000Y-101269419D01*
X115406190Y-101269419D02*
X115406190Y-100592085D01*
X115406190Y-100253419D02*
X115454571Y-100301800D01*
X115406190Y-100350180D01*
X115357809Y-100301800D01*
X115406190Y-100253419D01*
X115406190Y-100350180D01*
X115067523Y-100592085D02*
X114680476Y-100592085D01*
X114922380Y-100253419D02*
X114922380Y-101124276D01*
X114874000Y-101221038D01*
X114777238Y-101269419D01*
X114680476Y-101269419D01*
X114196666Y-101269419D02*
X114293428Y-101221038D01*
X114341809Y-101172657D01*
X114390190Y-101075895D01*
X114390190Y-100785609D01*
X114341809Y-100688847D01*
X114293428Y-100640466D01*
X114196666Y-100592085D01*
X114051523Y-100592085D01*
X113954761Y-100640466D01*
X113906380Y-100688847D01*
X113858000Y-100785609D01*
X113858000Y-101075895D01*
X113906380Y-101172657D01*
X113954761Y-101221038D01*
X114051523Y-101269419D01*
X114196666Y-101269419D01*
X113422571Y-101269419D02*
X113422571Y-100592085D01*
X113422571Y-100785609D02*
X113374190Y-100688847D01*
X113325809Y-100640466D01*
X113229047Y-100592085D01*
X113132285Y-100592085D01*
X111197047Y-101269419D02*
X111245428Y-101269419D01*
X111342190Y-101221038D01*
X111487333Y-101075895D01*
X111729238Y-100785609D01*
X111826000Y-100640466D01*
X111874380Y-100495323D01*
X111874380Y-100398561D01*
X111826000Y-100301800D01*
X111729238Y-100253419D01*
X111680857Y-100253419D01*
X111584095Y-100301800D01*
X111535714Y-100398561D01*
X111535714Y-100446942D01*
X111584095Y-100543704D01*
X111632476Y-100592085D01*
X111922761Y-100785609D01*
X111971142Y-100833990D01*
X112019523Y-100930752D01*
X112019523Y-101075895D01*
X111971142Y-101172657D01*
X111922761Y-101221038D01*
X111826000Y-101269419D01*
X111680857Y-101269419D01*
X111584095Y-101221038D01*
X111535714Y-101172657D01*
X111390571Y-100979133D01*
X111342190Y-100833990D01*
X111342190Y-100737228D01*
X109987523Y-101269419D02*
X109987523Y-100253419D01*
X109745619Y-100253419D01*
X109600476Y-100301800D01*
X109503714Y-100398561D01*
X109455333Y-100495323D01*
X109406952Y-100688847D01*
X109406952Y-100833990D01*
X109455333Y-101027514D01*
X109503714Y-101124276D01*
X109600476Y-101221038D01*
X109745619Y-101269419D01*
X109987523Y-101269419D01*
X108584476Y-101221038D02*
X108681238Y-101269419D01*
X108874761Y-101269419D01*
X108971523Y-101221038D01*
X109019904Y-101124276D01*
X109019904Y-100737228D01*
X108971523Y-100640466D01*
X108874761Y-100592085D01*
X108681238Y-100592085D01*
X108584476Y-100640466D01*
X108536095Y-100737228D01*
X108536095Y-100833990D01*
X109019904Y-100930752D01*
X108100666Y-101269419D02*
X108100666Y-100253419D01*
X108100666Y-100640466D02*
X108003904Y-100592085D01*
X107810380Y-100592085D01*
X107713619Y-100640466D01*
X107665238Y-100688847D01*
X107616857Y-100785609D01*
X107616857Y-101075895D01*
X107665238Y-101172657D01*
X107713619Y-101221038D01*
X107810380Y-101269419D01*
X108003904Y-101269419D01*
X108100666Y-101221038D01*
X106746000Y-100592085D02*
X106746000Y-101269419D01*
X107181428Y-100592085D02*
X107181428Y-101124276D01*
X107133047Y-101221038D01*
X107036285Y-101269419D01*
X106891142Y-101269419D01*
X106794380Y-101221038D01*
X106746000Y-101172657D01*
X105826761Y-100592085D02*
X105826761Y-101414561D01*
X105875142Y-101511323D01*
X105923523Y-101559704D01*
X106020285Y-101608085D01*
X106165428Y-101608085D01*
X106262190Y-101559704D01*
X105826761Y-101221038D02*
X105923523Y-101269419D01*
X106117047Y-101269419D01*
X106213809Y-101221038D01*
X106262190Y-101172657D01*
X106310571Y-101075895D01*
X106310571Y-100785609D01*
X106262190Y-100688847D01*
X106213809Y-100640466D01*
X106117047Y-100592085D01*
X105923523Y-100592085D01*
X105826761Y-100640466D01*
X104907523Y-100592085D02*
X104907523Y-101414561D01*
X104955904Y-101511323D01*
X105004285Y-101559704D01*
X105101047Y-101608085D01*
X105246190Y-101608085D01*
X105342952Y-101559704D01*
X104907523Y-101221038D02*
X105004285Y-101269419D01*
X105197809Y-101269419D01*
X105294571Y-101221038D01*
X105342952Y-101172657D01*
X105391333Y-101075895D01*
X105391333Y-100785609D01*
X105342952Y-100688847D01*
X105294571Y-100640466D01*
X105197809Y-100592085D01*
X105004285Y-100592085D01*
X104907523Y-100640466D01*
X104036666Y-101221038D02*
X104133428Y-101269419D01*
X104326952Y-101269419D01*
X104423714Y-101221038D01*
X104472095Y-101124276D01*
X104472095Y-100737228D01*
X104423714Y-100640466D01*
X104326952Y-100592085D01*
X104133428Y-100592085D01*
X104036666Y-100640466D01*
X103988285Y-100737228D01*
X103988285Y-100833990D01*
X104472095Y-100930752D01*
X103552857Y-101269419D02*
X103552857Y-100592085D01*
X103552857Y-100785609D02*
X103504476Y-100688847D01*
X103456095Y-100640466D01*
X103359333Y-100592085D01*
X103262571Y-100592085D01*
X102246571Y-100592085D02*
X102004666Y-101269419D01*
X101762761Y-100592085D01*
X101182190Y-100253419D02*
X101085428Y-100253419D01*
X100988666Y-100301800D01*
X100940285Y-100350180D01*
X100891904Y-100446942D01*
X100843523Y-100640466D01*
X100843523Y-100882371D01*
X100891904Y-101075895D01*
X100940285Y-101172657D01*
X100988666Y-101221038D01*
X101085428Y-101269419D01*
X101182190Y-101269419D01*
X101278952Y-101221038D01*
X101327333Y-101172657D01*
X101375714Y-101075895D01*
X101424095Y-100882371D01*
X101424095Y-100640466D01*
X101375714Y-100446942D01*
X101327333Y-100350180D01*
X101278952Y-100301800D01*
X101182190Y-100253419D01*
X100408095Y-101172657D02*
X100359714Y-101221038D01*
X100408095Y-101269419D01*
X100456476Y-101221038D01*
X100408095Y-101172657D01*
X100408095Y-101269419D01*
X99392095Y-101269419D02*
X99972666Y-101269419D01*
X99682380Y-101269419D02*
X99682380Y-100253419D01*
X99779142Y-100398561D01*
X99875904Y-100495323D01*
X99972666Y-100543704D01*
X116978571Y-102945819D02*
X116978571Y-101929819D01*
X116978571Y-102316866D02*
X116881809Y-102268485D01*
X116688285Y-102268485D01*
X116591523Y-102316866D01*
X116543142Y-102365247D01*
X116494761Y-102462009D01*
X116494761Y-102752295D01*
X116543142Y-102849057D01*
X116591523Y-102897438D01*
X116688285Y-102945819D01*
X116881809Y-102945819D01*
X116978571Y-102897438D01*
X116156095Y-102268485D02*
X115914190Y-102945819D01*
X115672285Y-102268485D02*
X115914190Y-102945819D01*
X116010952Y-103187723D01*
X116059333Y-103236104D01*
X116156095Y-103284485D01*
X114511142Y-102945819D02*
X114511142Y-101929819D01*
X114511142Y-102413628D02*
X113930571Y-102413628D01*
X113930571Y-102945819D02*
X113930571Y-101929819D01*
X113543523Y-102268485D02*
X113301619Y-102945819D01*
X113059714Y-102268485D02*
X113301619Y-102945819D01*
X113398380Y-103187723D01*
X113446761Y-103236104D01*
X113543523Y-103284485D01*
X112672666Y-102945819D02*
X112672666Y-102268485D01*
X112672666Y-101929819D02*
X112721047Y-101978200D01*
X112672666Y-102026580D01*
X112624285Y-101978200D01*
X112672666Y-101929819D01*
X112672666Y-102026580D01*
X111753428Y-102268485D02*
X111753428Y-103090961D01*
X111801809Y-103187723D01*
X111850190Y-103236104D01*
X111946952Y-103284485D01*
X112092095Y-103284485D01*
X112188857Y-103236104D01*
X111753428Y-102897438D02*
X111850190Y-102945819D01*
X112043714Y-102945819D01*
X112140476Y-102897438D01*
X112188857Y-102849057D01*
X112237238Y-102752295D01*
X112237238Y-102462009D01*
X112188857Y-102365247D01*
X112140476Y-102316866D01*
X112043714Y-102268485D01*
X111850190Y-102268485D01*
X111753428Y-102316866D01*
X110882571Y-102897438D02*
X110979333Y-102945819D01*
X111172857Y-102945819D01*
X111269619Y-102897438D01*
X111318000Y-102800676D01*
X111318000Y-102413628D01*
X111269619Y-102316866D01*
X111172857Y-102268485D01*
X110979333Y-102268485D01*
X110882571Y-102316866D01*
X110834190Y-102413628D01*
X110834190Y-102510390D01*
X111318000Y-102607152D01*
X110398761Y-102945819D02*
X110398761Y-102268485D01*
X110398761Y-102462009D02*
X110350380Y-102365247D01*
X110302000Y-102316866D01*
X110205238Y-102268485D01*
X110108476Y-102268485D01*
X108995714Y-102945819D02*
X108995714Y-101929819D01*
X108753809Y-101929819D01*
X108608666Y-101978200D01*
X108511904Y-102074961D01*
X108463523Y-102171723D01*
X108415142Y-102365247D01*
X108415142Y-102510390D01*
X108463523Y-102703914D01*
X108511904Y-102800676D01*
X108608666Y-102897438D01*
X108753809Y-102945819D01*
X108995714Y-102945819D01*
X107592666Y-102897438D02*
X107689428Y-102945819D01*
X107882952Y-102945819D01*
X107979714Y-102897438D01*
X108028095Y-102800676D01*
X108028095Y-102413628D01*
X107979714Y-102316866D01*
X107882952Y-102268485D01*
X107689428Y-102268485D01*
X107592666Y-102316866D01*
X107544285Y-102413628D01*
X107544285Y-102510390D01*
X108028095Y-102607152D01*
X107157238Y-102897438D02*
X107060476Y-102945819D01*
X106866952Y-102945819D01*
X106770190Y-102897438D01*
X106721809Y-102800676D01*
X106721809Y-102752295D01*
X106770190Y-102655533D01*
X106866952Y-102607152D01*
X107012095Y-102607152D01*
X107108857Y-102558771D01*
X107157238Y-102462009D01*
X107157238Y-102413628D01*
X107108857Y-102316866D01*
X107012095Y-102268485D01*
X106866952Y-102268485D01*
X106770190Y-102316866D01*
X106286380Y-102945819D02*
X106286380Y-102268485D01*
X106286380Y-101929819D02*
X106334761Y-101978200D01*
X106286380Y-102026580D01*
X106238000Y-101978200D01*
X106286380Y-101929819D01*
X106286380Y-102026580D01*
X105367142Y-102268485D02*
X105367142Y-103090961D01*
X105415523Y-103187723D01*
X105463904Y-103236104D01*
X105560666Y-103284485D01*
X105705809Y-103284485D01*
X105802571Y-103236104D01*
X105367142Y-102897438D02*
X105463904Y-102945819D01*
X105657428Y-102945819D01*
X105754190Y-102897438D01*
X105802571Y-102849057D01*
X105850952Y-102752295D01*
X105850952Y-102462009D01*
X105802571Y-102365247D01*
X105754190Y-102316866D01*
X105657428Y-102268485D01*
X105463904Y-102268485D01*
X105367142Y-102316866D01*
X104883333Y-102268485D02*
X104883333Y-102945819D01*
X104883333Y-102365247D02*
X104834952Y-102316866D01*
X104738190Y-102268485D01*
X104593047Y-102268485D01*
X104496285Y-102316866D01*
X104447904Y-102413628D01*
X104447904Y-102945819D01*
X104012476Y-102897438D02*
X103915714Y-102945819D01*
X103722190Y-102945819D01*
X103625428Y-102897438D01*
X103577047Y-102800676D01*
X103577047Y-102752295D01*
X103625428Y-102655533D01*
X103722190Y-102607152D01*
X103867333Y-102607152D01*
X103964095Y-102558771D01*
X104012476Y-102462009D01*
X104012476Y-102413628D01*
X103964095Y-102316866D01*
X103867333Y-102268485D01*
X103722190Y-102268485D01*
X103625428Y-102316866D01*
X119876000Y-114456000D02*
X122326000Y-114456000D01*
X121676000Y-117676000D02*
X119876000Y-117676000D01*
X161916000Y-82605252D02*
X161916000Y-82082748D01*
X163336000Y-82605252D02*
X163336000Y-82082748D01*
X164186000Y-91148000D02*
X166636000Y-91148000D01*
X165986000Y-94368000D02*
X164186000Y-94368000D01*
X108980000Y-115550748D02*
X108980000Y-116073252D01*
X107560000Y-115550748D02*
X107560000Y-116073252D01*
X111834000Y-115550748D02*
X111834000Y-116073252D01*
X110414000Y-115550748D02*
X110414000Y-116073252D01*
X164406000Y-90782000D02*
X165866000Y-90782000D01*
X164406000Y-87622000D02*
X166566000Y-87622000D01*
X164406000Y-87622000D02*
X164406000Y-88552000D01*
X164406000Y-90782000D02*
X164406000Y-89852000D01*
X93090000Y-113506000D02*
X96540000Y-113506000D01*
X93090000Y-113506000D02*
X91140000Y-113506000D01*
X93090000Y-118626000D02*
X95040000Y-118626000D01*
X93090000Y-118626000D02*
X91140000Y-118626000D01*
X137656000Y-100232000D02*
X140606000Y-100232000D01*
X139456000Y-103452000D02*
X137656000Y-103452000D01*
X169473000Y-84261000D02*
X169023000Y-83861000D01*
X169023000Y-83861000D02*
X169023000Y-84661000D01*
X169023000Y-84661000D02*
X169473000Y-84261000D01*
X175073000Y-89411000D02*
X172273000Y-89411000D01*
X172273000Y-89411000D02*
X172273000Y-89711000D01*
X172273000Y-89711000D02*
X170723000Y-89711000D01*
X175073000Y-81711000D02*
X172273000Y-81711000D01*
X172273000Y-81411000D02*
X172273000Y-81711000D01*
X172273000Y-81411000D02*
X170723000Y-81411000D01*
X166996000Y-84383252D02*
X166996000Y-83860748D01*
X168416000Y-84383252D02*
X168416000Y-83860748D01*
X114374000Y-115550748D02*
X114374000Y-116073252D01*
X112954000Y-115550748D02*
X112954000Y-116073252D01*
X127836000Y-115550748D02*
X127836000Y-116073252D01*
X126416000Y-115550748D02*
X126416000Y-116073252D01*
X145870000Y-117582748D02*
X145870000Y-118105252D01*
X144450000Y-117582748D02*
X144450000Y-118105252D01*
X79576000Y-101580748D02*
X79576000Y-102103252D01*
X78156000Y-101580748D02*
X78156000Y-102103252D01*
X79830000Y-115550748D02*
X79830000Y-116073252D01*
X78410000Y-115550748D02*
X78410000Y-116073252D01*
X148310000Y-107292748D02*
X148310000Y-107815252D01*
X146890000Y-107292748D02*
X146890000Y-107815252D01*
X98118000Y-101580748D02*
X98118000Y-102103252D01*
X96698000Y-101580748D02*
X96698000Y-102103252D01*
X126566000Y-101580748D02*
X126566000Y-102103252D01*
X125146000Y-101580748D02*
X125146000Y-102103252D01*
X88212000Y-115550748D02*
X88212000Y-116073252D01*
X86792000Y-115550748D02*
X86792000Y-116073252D01*
X84910000Y-115550748D02*
X84910000Y-116073252D01*
X83490000Y-115550748D02*
X83490000Y-116073252D01*
X121998095Y-113029619D02*
X121998095Y-113852095D01*
X121949714Y-113948857D01*
X121901333Y-113997238D01*
X121804571Y-114045619D01*
X121611047Y-114045619D01*
X121514285Y-113997238D01*
X121465904Y-113948857D01*
X121417523Y-113852095D01*
X121417523Y-113029619D01*
X120788571Y-113465047D02*
X120885333Y-113416666D01*
X120933714Y-113368285D01*
X120982095Y-113271523D01*
X120982095Y-113223142D01*
X120933714Y-113126380D01*
X120885333Y-113078000D01*
X120788571Y-113029619D01*
X120595047Y-113029619D01*
X120498285Y-113078000D01*
X120449904Y-113126380D01*
X120401523Y-113223142D01*
X120401523Y-113271523D01*
X120449904Y-113368285D01*
X120498285Y-113416666D01*
X120595047Y-113465047D01*
X120788571Y-113465047D01*
X120885333Y-113513428D01*
X120933714Y-113561809D01*
X120982095Y-113658571D01*
X120982095Y-113852095D01*
X120933714Y-113948857D01*
X120885333Y-113997238D01*
X120788571Y-114045619D01*
X120595047Y-114045619D01*
X120498285Y-113997238D01*
X120449904Y-113948857D01*
X120401523Y-113852095D01*
X120401523Y-113658571D01*
X120449904Y-113561809D01*
X120498285Y-113513428D01*
X120595047Y-113465047D01*
X165940095Y-92201619D02*
X165940095Y-93024095D01*
X165891714Y-93120857D01*
X165843333Y-93169238D01*
X165746571Y-93217619D01*
X165553047Y-93217619D01*
X165456285Y-93169238D01*
X165407904Y-93120857D01*
X165359523Y-93024095D01*
X165359523Y-92201619D01*
X164972476Y-92201619D02*
X164295142Y-92201619D01*
X164730571Y-93217619D01*
X160956857Y-82174666D02*
X161005238Y-82126285D01*
X161053619Y-81981142D01*
X161053619Y-81884380D01*
X161005238Y-81739238D01*
X160908476Y-81642476D01*
X160811714Y-81594095D01*
X160618190Y-81545714D01*
X160473047Y-81545714D01*
X160279523Y-81594095D01*
X160182761Y-81642476D01*
X160086000Y-81739238D01*
X160037619Y-81884380D01*
X160037619Y-81981142D01*
X160086000Y-82126285D01*
X160134380Y-82174666D01*
X161053619Y-82658476D02*
X161053619Y-82852000D01*
X161005238Y-82948761D01*
X160956857Y-82997142D01*
X160811714Y-83093904D01*
X160618190Y-83142285D01*
X160231142Y-83142285D01*
X160134380Y-83093904D01*
X160086000Y-83045523D01*
X160037619Y-82948761D01*
X160037619Y-82755238D01*
X160086000Y-82658476D01*
X160134380Y-82610095D01*
X160231142Y-82561714D01*
X160473047Y-82561714D01*
X160569809Y-82610095D01*
X160618190Y-82658476D01*
X160666571Y-82755238D01*
X160666571Y-82948761D01*
X160618190Y-83045523D01*
X160569809Y-83093904D01*
X160473047Y-83142285D01*
X162130095Y-92455619D02*
X162130095Y-93278095D01*
X162081714Y-93374857D01*
X162033333Y-93423238D01*
X161936571Y-93471619D01*
X161743047Y-93471619D01*
X161646285Y-93423238D01*
X161597904Y-93374857D01*
X161549523Y-93278095D01*
X161549523Y-92455619D01*
X161162476Y-92455619D02*
X160485142Y-92455619D01*
X160920571Y-93471619D01*
X106982857Y-115158857D02*
X107031238Y-115110476D01*
X107079619Y-114965333D01*
X107079619Y-114868571D01*
X107031238Y-114723428D01*
X106934476Y-114626666D01*
X106837714Y-114578285D01*
X106644190Y-114529904D01*
X106499047Y-114529904D01*
X106305523Y-114578285D01*
X106208761Y-114626666D01*
X106112000Y-114723428D01*
X106063619Y-114868571D01*
X106063619Y-114965333D01*
X106112000Y-115110476D01*
X106160380Y-115158857D01*
X107079619Y-116126476D02*
X107079619Y-115545904D01*
X107079619Y-115836190D02*
X106063619Y-115836190D01*
X106208761Y-115739428D01*
X106305523Y-115642666D01*
X106353904Y-115545904D01*
X106402285Y-116997333D02*
X107079619Y-116997333D01*
X106015238Y-116755428D02*
X106740952Y-116513523D01*
X106740952Y-117142476D01*
X109836857Y-115642666D02*
X109885238Y-115594285D01*
X109933619Y-115449142D01*
X109933619Y-115352380D01*
X109885238Y-115207238D01*
X109788476Y-115110476D01*
X109691714Y-115062095D01*
X109498190Y-115013714D01*
X109353047Y-115013714D01*
X109159523Y-115062095D01*
X109062761Y-115110476D01*
X108966000Y-115207238D01*
X108917619Y-115352380D01*
X108917619Y-115449142D01*
X108966000Y-115594285D01*
X109014380Y-115642666D01*
X109353047Y-116223238D02*
X109304666Y-116126476D01*
X109256285Y-116078095D01*
X109159523Y-116029714D01*
X109111142Y-116029714D01*
X109014380Y-116078095D01*
X108966000Y-116126476D01*
X108917619Y-116223238D01*
X108917619Y-116416761D01*
X108966000Y-116513523D01*
X109014380Y-116561904D01*
X109111142Y-116610285D01*
X109159523Y-116610285D01*
X109256285Y-116561904D01*
X109304666Y-116513523D01*
X109353047Y-116416761D01*
X109353047Y-116223238D01*
X109401428Y-116126476D01*
X109449809Y-116078095D01*
X109546571Y-116029714D01*
X109740095Y-116029714D01*
X109836857Y-116078095D01*
X109885238Y-116126476D01*
X109933619Y-116223238D01*
X109933619Y-116416761D01*
X109885238Y-116513523D01*
X109836857Y-116561904D01*
X109740095Y-116610285D01*
X109546571Y-116610285D01*
X109449809Y-116561904D01*
X109401428Y-116513523D01*
X109353047Y-116416761D01*
X162638095Y-88391619D02*
X162638095Y-89214095D01*
X162589714Y-89310857D01*
X162541333Y-89359238D01*
X162444571Y-89407619D01*
X162251047Y-89407619D01*
X162154285Y-89359238D01*
X162105904Y-89310857D01*
X162057523Y-89214095D01*
X162057523Y-88391619D01*
X161525333Y-89407619D02*
X161331809Y-89407619D01*
X161235047Y-89359238D01*
X161186666Y-89310857D01*
X161089904Y-89165714D01*
X161041523Y-88972190D01*
X161041523Y-88585142D01*
X161089904Y-88488380D01*
X161138285Y-88440000D01*
X161235047Y-88391619D01*
X161428571Y-88391619D01*
X161525333Y-88440000D01*
X161573714Y-88488380D01*
X161622095Y-88585142D01*
X161622095Y-88827047D01*
X161573714Y-88923809D01*
X161525333Y-88972190D01*
X161428571Y-89020571D01*
X161235047Y-89020571D01*
X161138285Y-88972190D01*
X161089904Y-88923809D01*
X161041523Y-88827047D01*
X100129904Y-117347619D02*
X100129904Y-118170095D01*
X100081523Y-118266857D01*
X100033142Y-118315238D01*
X99936380Y-118363619D01*
X99742857Y-118363619D01*
X99646095Y-118315238D01*
X99597714Y-118266857D01*
X99549333Y-118170095D01*
X99549333Y-117347619D01*
X98533333Y-118363619D02*
X99113904Y-118363619D01*
X98823619Y-118363619D02*
X98823619Y-117347619D01*
X98920380Y-117492761D01*
X99017142Y-117589523D01*
X99113904Y-117637904D01*
X97904380Y-117347619D02*
X97807619Y-117347619D01*
X97710857Y-117396000D01*
X97662476Y-117444380D01*
X97614095Y-117541142D01*
X97565714Y-117734666D01*
X97565714Y-117976571D01*
X97614095Y-118170095D01*
X97662476Y-118266857D01*
X97710857Y-118315238D01*
X97807619Y-118363619D01*
X97904380Y-118363619D01*
X98001142Y-118315238D01*
X98049523Y-118266857D01*
X98097904Y-118170095D01*
X98146285Y-117976571D01*
X98146285Y-117734666D01*
X98097904Y-117541142D01*
X98049523Y-117444380D01*
X98001142Y-117396000D01*
X97904380Y-117347619D01*
X142547904Y-102361619D02*
X142547904Y-101345619D01*
X142306000Y-101345619D01*
X142160857Y-101394000D01*
X142064095Y-101490761D01*
X142015714Y-101587523D01*
X141967333Y-101781047D01*
X141967333Y-101926190D01*
X142015714Y-102119714D01*
X142064095Y-102216476D01*
X142160857Y-102313238D01*
X142306000Y-102361619D01*
X142547904Y-102361619D01*
X140999714Y-102361619D02*
X141580285Y-102361619D01*
X141290000Y-102361619D02*
X141290000Y-101345619D01*
X141386761Y-101490761D01*
X141483523Y-101587523D01*
X141580285Y-101635904D01*
X166036857Y-82706857D02*
X166085238Y-82658476D01*
X166133619Y-82513333D01*
X166133619Y-82416571D01*
X166085238Y-82271428D01*
X165988476Y-82174666D01*
X165891714Y-82126285D01*
X165698190Y-82077904D01*
X165553047Y-82077904D01*
X165359523Y-82126285D01*
X165262761Y-82174666D01*
X165166000Y-82271428D01*
X165117619Y-82416571D01*
X165117619Y-82513333D01*
X165166000Y-82658476D01*
X165214380Y-82706857D01*
X166133619Y-83674476D02*
X166133619Y-83093904D01*
X166133619Y-83384190D02*
X165117619Y-83384190D01*
X165262761Y-83287428D01*
X165359523Y-83190666D01*
X165407904Y-83093904D01*
X165117619Y-84303428D02*
X165117619Y-84400190D01*
X165166000Y-84496952D01*
X165214380Y-84545333D01*
X165311142Y-84593714D01*
X165504666Y-84642095D01*
X165746571Y-84642095D01*
X165940095Y-84593714D01*
X166036857Y-84545333D01*
X166085238Y-84496952D01*
X166133619Y-84400190D01*
X166133619Y-84303428D01*
X166085238Y-84206666D01*
X166036857Y-84158285D01*
X165940095Y-84109904D01*
X165746571Y-84061523D01*
X165504666Y-84061523D01*
X165311142Y-84109904D01*
X165214380Y-84158285D01*
X165166000Y-84206666D01*
X165117619Y-84303428D01*
X115998857Y-115642666D02*
X116047238Y-115594285D01*
X116095619Y-115449142D01*
X116095619Y-115352380D01*
X116047238Y-115207238D01*
X115950476Y-115110476D01*
X115853714Y-115062095D01*
X115660190Y-115013714D01*
X115515047Y-115013714D01*
X115321523Y-115062095D01*
X115224761Y-115110476D01*
X115128000Y-115207238D01*
X115079619Y-115352380D01*
X115079619Y-115449142D01*
X115128000Y-115594285D01*
X115176380Y-115642666D01*
X115079619Y-115981333D02*
X115079619Y-116658666D01*
X116095619Y-116223238D01*
X125838857Y-115642666D02*
X125887238Y-115594285D01*
X125935619Y-115449142D01*
X125935619Y-115352380D01*
X125887238Y-115207238D01*
X125790476Y-115110476D01*
X125693714Y-115062095D01*
X125500190Y-115013714D01*
X125355047Y-115013714D01*
X125161523Y-115062095D01*
X125064761Y-115110476D01*
X124968000Y-115207238D01*
X124919619Y-115352380D01*
X124919619Y-115449142D01*
X124968000Y-115594285D01*
X125016380Y-115642666D01*
X124919619Y-116513523D02*
X124919619Y-116320000D01*
X124968000Y-116223238D01*
X125016380Y-116174857D01*
X125161523Y-116078095D01*
X125355047Y-116029714D01*
X125742095Y-116029714D01*
X125838857Y-116078095D01*
X125887238Y-116126476D01*
X125935619Y-116223238D01*
X125935619Y-116416761D01*
X125887238Y-116513523D01*
X125838857Y-116561904D01*
X125742095Y-116610285D01*
X125500190Y-116610285D01*
X125403428Y-116561904D01*
X125355047Y-116513523D01*
X125306666Y-116416761D01*
X125306666Y-116223238D01*
X125355047Y-116126476D01*
X125403428Y-116078095D01*
X125500190Y-116029714D01*
X143872857Y-117674666D02*
X143921238Y-117626285D01*
X143969619Y-117481142D01*
X143969619Y-117384380D01*
X143921238Y-117239238D01*
X143824476Y-117142476D01*
X143727714Y-117094095D01*
X143534190Y-117045714D01*
X143389047Y-117045714D01*
X143195523Y-117094095D01*
X143098761Y-117142476D01*
X143002000Y-117239238D01*
X142953619Y-117384380D01*
X142953619Y-117481142D01*
X143002000Y-117626285D01*
X143050380Y-117674666D01*
X142953619Y-118593904D02*
X142953619Y-118110095D01*
X143437428Y-118061714D01*
X143389047Y-118110095D01*
X143340666Y-118206857D01*
X143340666Y-118448761D01*
X143389047Y-118545523D01*
X143437428Y-118593904D01*
X143534190Y-118642285D01*
X143776095Y-118642285D01*
X143872857Y-118593904D01*
X143921238Y-118545523D01*
X143969619Y-118448761D01*
X143969619Y-118206857D01*
X143921238Y-118110095D01*
X143872857Y-118061714D01*
X77578857Y-101672666D02*
X77627238Y-101624285D01*
X77675619Y-101479142D01*
X77675619Y-101382380D01*
X77627238Y-101237238D01*
X77530476Y-101140476D01*
X77433714Y-101092095D01*
X77240190Y-101043714D01*
X77095047Y-101043714D01*
X76901523Y-101092095D01*
X76804761Y-101140476D01*
X76708000Y-101237238D01*
X76659619Y-101382380D01*
X76659619Y-101479142D01*
X76708000Y-101624285D01*
X76756380Y-101672666D01*
X76998285Y-102543523D02*
X77675619Y-102543523D01*
X76611238Y-102301619D02*
X77336952Y-102059714D01*
X77336952Y-102688666D01*
X77832857Y-115642666D02*
X77881238Y-115594285D01*
X77929619Y-115449142D01*
X77929619Y-115352380D01*
X77881238Y-115207238D01*
X77784476Y-115110476D01*
X77687714Y-115062095D01*
X77494190Y-115013714D01*
X77349047Y-115013714D01*
X77155523Y-115062095D01*
X77058761Y-115110476D01*
X76962000Y-115207238D01*
X76913619Y-115352380D01*
X76913619Y-115449142D01*
X76962000Y-115594285D01*
X77010380Y-115642666D01*
X76913619Y-115981333D02*
X76913619Y-116610285D01*
X77300666Y-116271619D01*
X77300666Y-116416761D01*
X77349047Y-116513523D01*
X77397428Y-116561904D01*
X77494190Y-116610285D01*
X77736095Y-116610285D01*
X77832857Y-116561904D01*
X77881238Y-116513523D01*
X77929619Y-116416761D01*
X77929619Y-116126476D01*
X77881238Y-116029714D01*
X77832857Y-115981333D01*
X146312857Y-107384666D02*
X146361238Y-107336285D01*
X146409619Y-107191142D01*
X146409619Y-107094380D01*
X146361238Y-106949238D01*
X146264476Y-106852476D01*
X146167714Y-106804095D01*
X145974190Y-106755714D01*
X145829047Y-106755714D01*
X145635523Y-106804095D01*
X145538761Y-106852476D01*
X145442000Y-106949238D01*
X145393619Y-107094380D01*
X145393619Y-107191142D01*
X145442000Y-107336285D01*
X145490380Y-107384666D01*
X145490380Y-107771714D02*
X145442000Y-107820095D01*
X145393619Y-107916857D01*
X145393619Y-108158761D01*
X145442000Y-108255523D01*
X145490380Y-108303904D01*
X145587142Y-108352285D01*
X145683904Y-108352285D01*
X145829047Y-108303904D01*
X146409619Y-107723333D01*
X146409619Y-108352285D01*
X96120857Y-101672666D02*
X96169238Y-101624285D01*
X96217619Y-101479142D01*
X96217619Y-101382380D01*
X96169238Y-101237238D01*
X96072476Y-101140476D01*
X95975714Y-101092095D01*
X95782190Y-101043714D01*
X95637047Y-101043714D01*
X95443523Y-101092095D01*
X95346761Y-101140476D01*
X95250000Y-101237238D01*
X95201619Y-101382380D01*
X95201619Y-101479142D01*
X95250000Y-101624285D01*
X95298380Y-101672666D01*
X96217619Y-102640285D02*
X96217619Y-102059714D01*
X96217619Y-102350000D02*
X95201619Y-102350000D01*
X95346761Y-102253238D01*
X95443523Y-102156476D01*
X95491904Y-102059714D01*
X124568857Y-101188857D02*
X124617238Y-101140476D01*
X124665619Y-100995333D01*
X124665619Y-100898571D01*
X124617238Y-100753428D01*
X124520476Y-100656666D01*
X124423714Y-100608285D01*
X124230190Y-100559904D01*
X124085047Y-100559904D01*
X123891523Y-100608285D01*
X123794761Y-100656666D01*
X123698000Y-100753428D01*
X123649619Y-100898571D01*
X123649619Y-100995333D01*
X123698000Y-101140476D01*
X123746380Y-101188857D01*
X124665619Y-102156476D02*
X124665619Y-101575904D01*
X124665619Y-101866190D02*
X123649619Y-101866190D01*
X123794761Y-101769428D01*
X123891523Y-101672666D01*
X123939904Y-101575904D01*
X123649619Y-102495142D02*
X123649619Y-103124095D01*
X124036666Y-102785428D01*
X124036666Y-102930571D01*
X124085047Y-103027333D01*
X124133428Y-103075714D01*
X124230190Y-103124095D01*
X124472095Y-103124095D01*
X124568857Y-103075714D01*
X124617238Y-103027333D01*
X124665619Y-102930571D01*
X124665619Y-102640285D01*
X124617238Y-102543523D01*
X124568857Y-102495142D01*
X86214857Y-115158857D02*
X86263238Y-115110476D01*
X86311619Y-114965333D01*
X86311619Y-114868571D01*
X86263238Y-114723428D01*
X86166476Y-114626666D01*
X86069714Y-114578285D01*
X85876190Y-114529904D01*
X85731047Y-114529904D01*
X85537523Y-114578285D01*
X85440761Y-114626666D01*
X85344000Y-114723428D01*
X85295619Y-114868571D01*
X85295619Y-114965333D01*
X85344000Y-115110476D01*
X85392380Y-115158857D01*
X86311619Y-116126476D02*
X86311619Y-115545904D01*
X86311619Y-115836190D02*
X85295619Y-115836190D01*
X85440761Y-115739428D01*
X85537523Y-115642666D01*
X85585904Y-115545904D01*
X85392380Y-116513523D02*
X85344000Y-116561904D01*
X85295619Y-116658666D01*
X85295619Y-116900571D01*
X85344000Y-116997333D01*
X85392380Y-117045714D01*
X85489142Y-117094095D01*
X85585904Y-117094095D01*
X85731047Y-117045714D01*
X86311619Y-116465142D01*
X86311619Y-117094095D01*
X82912857Y-115158857D02*
X82961238Y-115110476D01*
X83009619Y-114965333D01*
X83009619Y-114868571D01*
X82961238Y-114723428D01*
X82864476Y-114626666D01*
X82767714Y-114578285D01*
X82574190Y-114529904D01*
X82429047Y-114529904D01*
X82235523Y-114578285D01*
X82138761Y-114626666D01*
X82042000Y-114723428D01*
X81993619Y-114868571D01*
X81993619Y-114965333D01*
X82042000Y-115110476D01*
X82090380Y-115158857D01*
X83009619Y-116126476D02*
X83009619Y-115545904D01*
X83009619Y-115836190D02*
X81993619Y-115836190D01*
X82138761Y-115739428D01*
X82235523Y-115642666D01*
X82283904Y-115545904D01*
X83009619Y-117094095D02*
X83009619Y-116513523D01*
X83009619Y-116803809D02*
X81993619Y-116803809D01*
X82138761Y-116707047D01*
X82235523Y-116610285D01*
X82283904Y-116513523D01*
M02*
