M48
; DRILL file {KiCad (5.1.0-0)} date Thursday, April 18, 2019 at 01:45:18 PM
; FORMAT={3:3/ absolute / metric / suppress leading zeros}
; #@! TF.CreationDate,2019-04-18T13:45:18-07:00
; #@! TF.GenerationSoftware,Kicad,Pcbnew,(5.1.0-0)
FMAT,2
METRIC,TZ
T1C0.330
T2C0.650
T3C0.700
T4C0.800
T5C0.900
T6C1.000
T7C1.100
T8C3.200
%
G90
G05
T1
X134746Y-102029
X161200Y-117206
T4
X168400Y-94574
X168400Y-97114
X168400Y-99654
X110108Y-109208
X112648Y-109208
X115188Y-109208
X117728Y-109208
X120268Y-109208
X122808Y-109208
X125094Y-78982
X125094Y-81522
X125094Y-84062
X125094Y-86602
X125094Y-89142
X125094Y-91682
X125094Y-94222
X132714Y-78982
X132714Y-81522
X132714Y-84062
X132714Y-86602
X132714Y-89142
X132714Y-91682
X132714Y-94222
X78866Y-98032
X78866Y-105652
X81406Y-98032
X81406Y-105652
X83946Y-98032
X83946Y-105652
X86486Y-98032
X86486Y-105652
X89026Y-98032
X89026Y-105652
X91566Y-98032
X91566Y-105652
X94106Y-98032
X94106Y-105652
X114426Y-78982
X114426Y-81522
X114426Y-84062
X114426Y-86602
X114426Y-89142
X147192Y-103874
X147192Y-111494
X149732Y-103874
X149732Y-111494
X152272Y-103874
X152272Y-111494
X154812Y-103874
X154812Y-111494
X157352Y-103874
X157352Y-111494
X159892Y-103874
X159892Y-111494
X162432Y-103874
X162432Y-111494
X164972Y-103874
X164972Y-111494
X144652Y-114796
X144652Y-122416
X147192Y-114796
X147192Y-122416
X149732Y-114796
X149732Y-122416
X152272Y-114796
X152272Y-122416
X154812Y-114796
X154812Y-122416
X157352Y-114796
X157352Y-122416
X159892Y-114796
X159892Y-122416
X162432Y-114796
X162432Y-122416
X164972Y-114796
X164972Y-122416
X167512Y-114796
X167512Y-122416
X114426Y-91682
X103758Y-78982
X103758Y-81522
X103758Y-84062
X103758Y-86602
X103758Y-89142
X103758Y-91682
X103758Y-94222
X111378Y-78982
X111378Y-81522
X111378Y-84062
X111378Y-86602
X111378Y-89142
X111378Y-91682
X111378Y-94222
X92836Y-78982
X92836Y-81522
X92836Y-84062
X92836Y-86602
X92836Y-89142
X92836Y-91682
X92836Y-94222
X168400Y-104474
X168400Y-107014
X168400Y-109554
X100456Y-78982
X100456Y-81522
X100456Y-84062
X100456Y-86602
X100456Y-89142
X100456Y-91682
X100456Y-94222
X149478Y-78982
X149478Y-81522
X149478Y-84062
X149478Y-86602
X149478Y-89142
X149478Y-91682
X149478Y-94222
X157098Y-78982
X157098Y-81522
X157098Y-84062
X157098Y-86602
X157098Y-89142
X157098Y-91682
X157098Y-94222
X138556Y-78982
X138556Y-81522
X138556Y-84062
X138556Y-86602
X138556Y-89142
X138556Y-91682
X138556Y-94222
X146176Y-78982
X146176Y-81522
X146176Y-84062
X146176Y-86602
X146176Y-89142
X146176Y-91682
X146176Y-94222
X126110Y-112002
X126110Y-119622
X128650Y-112002
X128650Y-119622
X131190Y-112002
X131190Y-119622
X133730Y-112002
X133730Y-119622
X136270Y-112002
X136270Y-119622
X138810Y-112002
X138810Y-119622
X141350Y-112002
X141350Y-119622
X97408Y-98032
X97408Y-105652
X122046Y-89142
X114426Y-94222
X122046Y-78982
X122046Y-81522
X122046Y-84062
X122046Y-86602
X122046Y-91682
X122046Y-94222
X144652Y-100572
X147192Y-100572
X149732Y-100572
X152272Y-100572
X154812Y-100572
X157352Y-100572
X107568Y-98032
X159892Y-100572
X162432Y-100572
X164972Y-100572
X112648Y-98032
X78866Y-112256
X78866Y-119876
X81406Y-112256
X81406Y-119876
X83946Y-112256
X83946Y-119876
X86486Y-112256
X86486Y-119876
X89026Y-112256
X89026Y-119876
X91566Y-112256
X91566Y-119876
X99948Y-98032
X99948Y-105652
X102488Y-98032
X102488Y-105652
X105028Y-98032
X105028Y-105652
X107568Y-105652
X110108Y-98032
X110108Y-105652
X112648Y-105652
X112648Y-112002
X94106Y-112256
X94106Y-119876
X96646Y-112256
X96646Y-119876
X99186Y-112256
X99186Y-119876
X101726Y-112256
X101726Y-119876
X107568Y-112002
X107568Y-119622
X110108Y-112002
X110108Y-119622
X112648Y-119622
X115188Y-112002
X115188Y-119622
X117728Y-112002
X117728Y-119622
X120268Y-112002
X117728Y-98032
X115188Y-98032
X115188Y-105652
X117728Y-105652
X120268Y-98032
X120268Y-105652
X120268Y-119622
X122808Y-112002
X122808Y-119622
X123570Y-98032
X123570Y-105652
X126110Y-98032
X126110Y-105652
X128650Y-98032
X128650Y-105652
X131190Y-98032
X131190Y-105652
X133730Y-98032
X133730Y-105652
X136270Y-98032
X136270Y-105652
X138810Y-98032
X138810Y-105652
X141350Y-98032
X141350Y-105652
T5
X170070Y-115304
X170070Y-117804
X170070Y-120304
X173370Y-115304
X173370Y-117804
X173370Y-120304
X173480Y-104474
X173480Y-109554
X173480Y-94574
X173480Y-99654
T6
X118236Y-122670
X120776Y-122670
X123316Y-122670
X125856Y-122670
X128396Y-122670
X130936Y-122670
X133476Y-122670
X136016Y-122670
X138556Y-122670
X141096Y-122670
X77596Y-125464
X80136Y-125464
X82676Y-125464
X85216Y-125464
X87756Y-125464
X90296Y-125464
X92836Y-125464
X95376Y-125464
X97916Y-125464
X100456Y-125464
X102996Y-125464
X105536Y-125464
X108076Y-125464
X110616Y-125464
X113156Y-125464
X115696Y-125464
X118236Y-125464
X120776Y-125464
X123316Y-125464
X125856Y-125464
X128396Y-125464
X130936Y-125464
X133476Y-125464
X136016Y-125464
X138556Y-125464
X141096Y-125464
X143636Y-125464
X146176Y-125464
X148716Y-125464
X151256Y-125464
X153796Y-125464
X156336Y-125464
X158876Y-125464
X161416Y-125464
X163956Y-125464
X166496Y-125464
X169036Y-125464
X171576Y-125464
X174116Y-125464
X168468Y-79490
X171008Y-79490
T7
X160412Y-79296
X160412Y-85796
X164912Y-79296
X164912Y-85796
T8
X81346Y-93774
T2
G00X170653Y-83141
M15
G01X170253Y-83141
M16
G05
G00X170653Y-87981
M15
G01X170253Y-87981
M16
G05
T3
G00X173703Y-82831
M15
G01X173203Y-82831
M16
G05
G00X173703Y-88291
M15
G01X173203Y-88291
M16
G05
T0
M30
